<svg xmlns="http://www.w3.org/2000/svg" width="111.162" height="18.814" viewBox="0 0 111.162 18.814">
  <g id="그룹_83" data-name="그룹 83" transform="translate(-572.918 -3646)">
    <path id="star" d="M19.581,7.6a1.041,1.041,0,0,0-.9-.717l-5.666-.515L10.776,1.125a1.043,1.043,0,0,0-1.919,0L6.616,6.369.949,6.884A1.045,1.045,0,0,0,.357,8.709L4.64,12.466,3.377,18.029a1.042,1.042,0,0,0,1.552,1.127l4.888-2.921L14.7,19.157a1.043,1.043,0,0,0,1.553-1.127l-1.263-5.564L19.275,8.71A1.044,1.044,0,0,0,19.581,7.6Zm0,0" transform="translate(572.917 3645.509)" fill="#ffbc0d"/>
    <path id="star-2" data-name="star" d="M19.581,7.6a1.041,1.041,0,0,0-.9-.717l-5.666-.515L10.776,1.125a1.043,1.043,0,0,0-1.919,0L6.616,6.369.949,6.884A1.045,1.045,0,0,0,.357,8.709L4.64,12.466,3.377,18.029a1.042,1.042,0,0,0,1.552,1.127l4.888-2.921L14.7,19.157a1.043,1.043,0,0,0,1.553-1.127l-1.263-5.564L19.275,8.71A1.044,1.044,0,0,0,19.581,7.6Zm0,0" transform="translate(618.682 3645.509)" fill="#ffbc0d"/>
    <path id="star-3" data-name="star" d="M19.581,7.6a1.041,1.041,0,0,0-.9-.717l-5.666-.515L10.776,1.125a1.043,1.043,0,0,0-1.919,0L6.616,6.369.949,6.884A1.045,1.045,0,0,0,.357,8.709L4.64,12.466,3.377,18.029a1.042,1.042,0,0,0,1.552,1.127l4.888-2.921L14.7,19.157a1.043,1.043,0,0,0,1.553-1.127l-1.263-5.564L19.275,8.71A1.044,1.044,0,0,0,19.581,7.6Zm0,0" transform="translate(595.799 3645.509)" fill="#ffbc0d"/>
    <path id="star-4" data-name="star" d="M19.581,7.6a1.041,1.041,0,0,0-.9-.717l-5.666-.515L10.776,1.125a1.043,1.043,0,0,0-1.919,0L6.616,6.369.949,6.884A1.045,1.045,0,0,0,.357,8.709L4.64,12.466,3.377,18.029a1.042,1.042,0,0,0,1.552,1.127l4.888-2.921L14.7,19.157a1.043,1.043,0,0,0,1.553-1.127l-1.263-5.564L19.275,8.71A1.044,1.044,0,0,0,19.581,7.6Zm0,0" transform="translate(641.564 3645.509)" fill="#ffbc0d"/>
    <path id="star-5" data-name="star" d="M19.581,7.6a1.041,1.041,0,0,0-.9-.717l-5.666-.515L10.776,1.125a1.043,1.043,0,0,0-1.919,0L6.616,6.369.949,6.884A1.045,1.045,0,0,0,.357,8.709L4.64,12.466,3.377,18.029a1.042,1.042,0,0,0,1.552,1.127l4.888-2.921L14.7,19.157a1.043,1.043,0,0,0,1.553-1.127l-1.263-5.564L19.275,8.71A1.044,1.044,0,0,0,19.581,7.6Zm0,0" transform="translate(664.447 3645.509)" fill="#ffbc0d"/>
  </g>
</svg>
