<svg xmlns="http://www.w3.org/2000/svg" width="1826.454" height="343.44" viewBox="0 0 1826.454 343.44">
  <g id="color-particles-2" transform="translate(-191 -118.56)">
    <path id="패스_70" data-name="패스 70" d="M1406.69,164.62a2.8,2.8,0,0,1-2.36-2.5,3.7,3.7,0,0,1,1.66-3.448c.66-.436,1.32-.8,1.91-1.114,1.75-.951,2.09-1.233,2.26-1.891s0-1.021-1.15-2.431c-1.29-1.589-3.24-3.99-2.22-7.946s4-5.574,5.98-6.646c1.75-.951,2.09-1.234,2.26-1.892s0-1.022-1.15-2.435c-1.29-1.589-3.24-3.991-2.23-7.946s4.01-5.576,5.99-6.648c.4-.219.78-.426,1.12-.632a2.97,2.97,0,0,1,4.31.982,3.579,3.579,0,0,1-1.45,4.55c-.51.317-1,.582-1.48.841-1.75.951-2.09,1.233-2.26,1.895s0,1.022,1.14,2.435c1.3,1.589,3.25,3.991,2.23,7.946s-4,5.574-5.98,6.647c-1.75.951-2.09,1.234-2.26,1.892s0,1.021,1.15,2.431c1.29,1.588,3.24,3.99,2.22,7.944s-4,5.575-5.98,6.648c-.49.267-.96.52-1.34.771A3.343,3.343,0,0,1,1406.69,164.62Z" transform="translate(357.485)" fill="#07dfe0"/>
    <path id="패스_71" data-name="패스 71" d="M1427.6,445.923a3.617,3.617,0,0,1,.47-4.086,3.806,3.806,0,0,1,4.13-.757l8.54,3.18,3.67-7.069a3.643,3.643,0,0,1,4.64-1.477l8.55,3.18,3.67-7.069a3.642,3.642,0,0,1,4.64-1.477l11.79,4.387a4.923,4.923,0,0,1,2.99,3.123,3.439,3.439,0,0,1-.92,3.676,3.873,3.873,0,0,1-3.92.553l-8.54-3.178-3.68,7.07a3.642,3.642,0,0,1-4.64,1.477l-8.55-3.179-3.67,7.068a3.638,3.638,0,0,1-4.64,1.477l-11.79-4.389A5.019,5.019,0,0,1,1427.6,445.923Z" transform="translate(357.485)" fill="#ff5858"/>
    <path id="패스_72" data-name="패스 72" d="M1481.8,282.947a3.124,3.124,0,0,1-1.84-4.477l11.41-25.212a4.447,4.447,0,0,1,5.04-2.516l24.93,7.1a2.99,2.99,0,0,1,2.22,3.072,4.354,4.354,0,0,1-2.47,3.6l-36.34,18.115A4.073,4.073,0,0,1,1481.8,282.947Zm14.91-24.215-6,13.256,19.11-9.524Z" transform="translate(357.485)" fill="#5b3dd1"/>
    <path id="패스_73" data-name="패스 73" d="M384.146,430.564a4.752,4.752,0,0,1-4.49.886,3.909,3.909,0,0,1-2.842-3.174l-.94-8.051-9.185-.826a4.074,4.074,0,0,1-3.847-3.373l-.942-8.054-9.186-.827a4.073,4.073,0,0,1-3.847-3.373l-1.3-11.114a3.608,3.608,0,0,1,1.762-3.448,4.824,4.824,0,0,1,4.286-.385,3.854,3.854,0,0,1,2.525,3.062l.946,8.057,9.189.83a4.074,4.074,0,0,1,3.847,3.372l.942,8.054,9.185.826A4.073,4.073,0,0,1,384.1,416.4l1.3,11.111A3.513,3.513,0,0,1,384.146,430.564Z" fill="#9c5cff"/>
    <path id="패스_74" data-name="패스 74" d="M437.738,294.1a4.777,4.777,0,0,1-2.982,1.356,4.507,4.507,0,0,1-3.1-.857,12.352,12.352,0,0,0-15.8,1.3c-4.168,4.194-3.851,10.413.708,13.89a3.465,3.465,0,0,1,.273,5.343,4.752,4.752,0,0,1-6.078.5c-8.067-6.152-8.628-17.155-1.253-24.576s19.892-8.448,27.959-2.3a3.446,3.446,0,0,1,1.395,2.568A3.687,3.687,0,0,1,437.738,294.1Z" fill="#ffcd45"/>
    <path id="패스_75" data-name="패스 75" d="M337.174,173.57a2.8,2.8,0,0,1-1.932-1.463,3.421,3.421,0,0,1-.172-2.6l7.7-24.468a3.85,3.85,0,0,1,4.244-2.738,3.027,3.027,0,0,1,2.1,4.059l-7.7,24.468a4.127,4.127,0,0,1-1.686,2.211A3.451,3.451,0,0,1,337.174,173.57Z" fill="#3798fa"/>
    <path id="패스_76" data-name="패스 76" d="M1618.11,462a24.565,24.565,0,1,0-24.59-24.565A24.578,24.578,0,0,0,1618.11,462Z" transform="translate(357.485)" fill="#fff7f1"/>
    <path id="패스_77" data-name="패스 77" d="M1656.15,407.14l-17.73-14.576a10.646,10.646,0,0,0-6.83-2.382H1518.73A17.716,17.716,0,0,1,1501,372.471v-63.76A17.715,17.715,0,0,1,1518.73,291h123.51a17.715,17.715,0,0,1,17.73,17.711v96.525a2.352,2.352,0,0,1-1.32,2.134,2.361,2.361,0,0,1-1.28.24,2.413,2.413,0,0,1-1.22-.47Z" transform="translate(357.485)" fill="#fff"/>
    <path id="패스_78" data-name="패스 78" d="M1577.43,312.058h-55.35a3.508,3.508,0,0,0-3.51,3.507v.009a3.508,3.508,0,0,0,3.51,3.507h55.35a3.507,3.507,0,0,0,3.51-3.507v-.009A3.508,3.508,0,0,0,1577.43,312.058Z" transform="translate(357.485)" fill="#ffb6cb"/>
    <path id="패스_79" data-name="패스 79" d="M1611.4,312.058h-21.97a3.508,3.508,0,0,0-3.51,3.507v.009a3.507,3.507,0,0,0,3.51,3.507h21.97a3.508,3.508,0,0,0,3.51-3.507v-.009A3.508,3.508,0,0,0,1611.4,312.058Z" transform="translate(357.485)" fill="#ffb6cb"/>
    <path id="패스_80" data-name="패스 80" d="M1636.87,312.058H1623.1a3.508,3.508,0,0,0-3.51,3.507v.009a3.508,3.508,0,0,0,3.51,3.507h13.77a3.507,3.507,0,0,0,3.51-3.507v-.009A3.508,3.508,0,0,0,1636.87,312.058Z" transform="translate(357.485)" fill="#ffb6cb"/>
    <path id="패스_81" data-name="패스 81" d="M1594.11,328.441h-72.03a3.507,3.507,0,0,0-3.51,3.507v.009a3.507,3.507,0,0,0,3.51,3.507h72.03a3.507,3.507,0,0,0,3.51-3.507v-.009A3.507,3.507,0,0,0,1594.11,328.441Z" transform="translate(357.485)" fill="#e5eaf6"/>
    <path id="패스_82" data-name="패스 82" d="M1636.87,328.441h-29.58a3.507,3.507,0,0,0-3.51,3.507v.009a3.507,3.507,0,0,0,3.51,3.507h29.58a3.507,3.507,0,0,0,3.51-3.507v-.009A3.507,3.507,0,0,0,1636.87,328.441Z" transform="translate(357.485)" fill="#e5eaf6"/>
    <path id="패스_83" data-name="패스 83" d="M1577.23,351.837h59.64a3.507,3.507,0,0,0,3.51-3.506v-.009a3.507,3.507,0,0,0-3.51-3.507h-59.64a3.508,3.508,0,0,0-3.51,3.507v.009A3.507,3.507,0,0,0,1577.23,351.837Z" transform="translate(357.485)" fill="#6ad5e1"/>
    <path id="패스_84" data-name="패스 84" d="M1545.2,351.837h20.02a3.507,3.507,0,0,0,3.51-3.506v-.009a3.507,3.507,0,0,0-3.51-3.507H1545.2a3.514,3.514,0,0,0-3.51,3.507v.009A3.514,3.514,0,0,0,1545.2,351.837Z" transform="translate(357.485)" fill="#6ad5e1"/>
    <path id="패스_85" data-name="패스 85" d="M1522.07,351.837h11.43a3.507,3.507,0,0,0,3.51-3.506v-.009a3.508,3.508,0,0,0-3.51-3.507h-11.43a3.514,3.514,0,0,0-3.51,3.507v.009A3.514,3.514,0,0,0,1522.07,351.837Z" transform="translate(357.485)" fill="#6ad5e1"/>
    <path id="패스_86" data-name="패스 86" d="M1568.45,361.2h-46.37a3.507,3.507,0,0,0-3.51,3.506v.009a3.508,3.508,0,0,0,3.51,3.507h46.37a3.507,3.507,0,0,0,3.51-3.507V364.7A3.507,3.507,0,0,0,1568.45,361.2Z" transform="translate(357.485)" fill="#e5eaf6"/>
    <path id="패스_87" data-name="패스 87" d="M1606.71,361.2h-26.26a3.507,3.507,0,0,0-3.51,3.506v.009a3.508,3.508,0,0,0,3.51,3.507h26.26a3.507,3.507,0,0,0,3.51-3.507V364.7A3.507,3.507,0,0,0,1606.71,361.2Z" transform="translate(357.485)" fill="#e5eaf6"/>
    <path id="패스_88" data-name="패스 88" d="M1636.87,361.2h-18.45a3.507,3.507,0,0,0-3.51,3.506v.009a3.507,3.507,0,0,0,3.51,3.507h18.45a3.507,3.507,0,0,0,3.51-3.507V364.7A3.507,3.507,0,0,0,1636.87,361.2Z" transform="translate(357.485)" fill="#e5eaf6"/>
    <path id="패스_89" data-name="패스 89" d="M1618.11,424.488a12.949,12.949,0,1,1-12.96,12.947,12.924,12.924,0,0,1,8-11.966,12.942,12.942,0,0,1,4.96-.981Zm0-1.408a14.374,14.374,0,1,0,10.16,4.21,14.426,14.426,0,0,0-10.16-4.21Z" transform="translate(357.485)" fill="#ff92af"/>
    <path id="패스_90" data-name="패스 90" d="M1613.21,431.8a.693.693,0,0,1,.49.2.687.687,0,0,1,0,.989.7.7,0,1,1-.49-1.194Zm0-1.4a2.092,2.092,0,1,0,2.1,2.1,2.124,2.124,0,0,0-.63-1.464,2.1,2.1,0,0,0-1.47-.608Z" transform="translate(357.485)" fill="#ff92af"/>
    <path id="패스_91" data-name="패스 91" d="M1609.63,438.125a.727.727,0,0,0-.29.093.691.691,0,0,0-.22.207.59.59,0,0,0-.11.282.625.625,0,0,0,.01.3,9.349,9.349,0,0,0,18.18,0,.839.839,0,0,0,.02-.274.625.625,0,0,0-.09-.261.565.565,0,0,0-.18-.208.64.64,0,0,0-.24-.125.723.723,0,0,0-.28-.021.709.709,0,0,0-.26.085.747.747,0,0,0-.21.179.977.977,0,0,0-.12.244,8.113,8.113,0,0,1-7.73,6.146,8.222,8.222,0,0,1-7.73-6.146.72.72,0,0,0-.28-.393.7.7,0,0,0-.47-.12Z" transform="translate(357.485)" fill="#ff92af"/>
    <path id="패스_92" data-name="패스 92" d="M1623.01,431.8a.693.693,0,0,0-.49.2.687.687,0,0,0,0,.989.7.7,0,1,0,.49-1.194Zm0-1.4a2.1,2.1,0,0,1,.41,4.158,2.084,2.084,0,0,1-1.21-.12,2.137,2.137,0,0,1-.95-.773,2.1,2.1,0,0,1-.35-1.166,2.123,2.123,0,0,1,.63-1.464,2.1,2.1,0,0,1,1.47-.608Z" transform="translate(357.485)" fill="#ff92af"/>
    <path id="패스_93" data-name="패스 93" d="M317.076,215H206.924A15.892,15.892,0,0,0,191,230.86V342.14A15.892,15.892,0,0,0,206.924,358H317.076A15.892,15.892,0,0,0,333,342.14V230.86A15.892,15.892,0,0,0,317.076,215Z" fill="#fff"/>
    <path id="패스_94" data-name="패스 94" d="M292.745,326.653h-61.5a3.147,3.147,0,0,0-3.153,3.14v.008a3.146,3.146,0,0,0,3.153,3.14h61.5a3.146,3.146,0,0,0,3.153-3.14v-.008A3.147,3.147,0,0,0,292.745,326.653Z" fill="#f3f5fb"/>
    <path id="패스_95" data-name="패스 95" d="M283.063,295.2H240.929a3.171,3.171,0,0,0-3.177,3.164v2.577a3.17,3.17,0,0,0,3.177,3.164h42.134a3.171,3.171,0,0,0,3.177-3.164v-2.577A3.171,3.171,0,0,0,283.063,295.2Z" fill="#e5eaf6"/>
    <path id="패스_96" data-name="패스 96" d="M299.115,314.108H224.878a3.147,3.147,0,0,0-3.153,3.14v.008a3.146,3.146,0,0,0,3.153,3.14h74.237a3.145,3.145,0,0,0,3.152-3.14v-.008A3.146,3.146,0,0,0,299.115,314.108Z" fill="#f3f5fb"/>
    <path id="패스_97" data-name="패스 97" d="M262,276.869a22,22,0,1,0-22.086-22A22.041,22.041,0,0,0,262,276.869Z" fill="#dcf4f7"/>
    <path id="패스_98" data-name="패스 98" d="M269.544,268.63l-1.37-4.163a45.212,45.212,0,0,0-1.011-7.343h0c0-.793-.1-2.99-.207-3.64a.412.412,0,0,0,0-.111c.589-1.9,2.158-6.495,2.285-6.653s-.1-.635-.47-.635a4.2,4.2,0,0,0-2.309,1.4c.168-3.418.566-6.447.566-6.606s-.088-.713-.4-.713a5.153,5.153,0,0,0-2.644,2.585l-.947-3.418c0-.19-.143-.46-.358-.46-1.457,0-1.712,2.752-1.712,3.323,0,.261.382,2.442.8,4.758l.064.333.143.793.255,1.4.207.976c.1.491.183.935.263,1.308v.143a24.305,24.305,0,0,0-3.655-2.284c-.358,0-6.688,3.172-7.635,4.361-.192,0-.876.222-.876.452a54.565,54.565,0,0,0,3.909,6.662c.613.555,4.506,3.774,4.506,3.774a55.781,55.781,0,0,1,1.4,5.456H269.9Zm-3.082-21.117c0,.483-.047,2.379-.063,3.33C266.383,249.717,266.415,248.583,266.462,247.513Zm-4.554,9.254c0,.127-3.431,2.633-3.981,2.633s-3.328-4.227-4.7-4.877c1.337.293,5.056-1.586,5.215-1.586s2.97,1.982,3.1,2.109a6.457,6.457,0,0,1,.358,1.721Z" fill="#fccb5b"/>
    <path id="패스_99" data-name="패스 99" d="M263.039,239.337c0,.2,3.83,13.481,3.925,14.147" fill="none" stroke="#ff7f9a" stroke-miterlimit="10" stroke-width="0.4"/>
    <path id="패스_100" data-name="패스 100" d="M251.462,253.975c.311.143,1.7.54,1.863.6" fill="none" stroke="#ff7f9a" stroke-miterlimit="10" stroke-width="0.4"/>
    <path id="패스_101" data-name="패스 101" d="M269.918,270.319l-.358-1.689a37.81,37.81,0,0,1-1.37-4.163c0-.579-.493-8.319-2.189-10.008a37.432,37.432,0,0,0-6.887-4.845c-.359,0-6.688,3.172-7.636,4.361-.191,0-.875.222-.875.452a54.567,54.567,0,0,0,3.909,6.662c.613.555,4.506,3.774,4.506,3.774.167.714,1.433,4.758,1.4,5.456m9.124-1.689a37.8,37.8,0,0,1-1.37-4.163ZM253.2,254.523c1.338.293,5.056-1.586,5.215-1.586s2.97,1.982,3.105,2.109a6.45,6.45,0,0,1,.39,1.689c0,.127-3.431,2.633-3.981,2.633S254.568,255.173,253.2,254.523Z" fill="none" stroke="#ff7f9a" stroke-miterlimit="10" stroke-width="0.4"/>
    <path id="패스_102" data-name="패스 102" d="M262.752,251.89c-.557-2.569-1.783-9.223-1.783-9.69s.255-3.323,1.712-3.323c.215,0,.342.27.358.46s3.83,13.481,3.925,14.147.2,2.831.207,3.64" fill="none" stroke="#ff7f9a" stroke-miterlimit="10" stroke-width="0.4"/>
    <path id="패스_103" data-name="패스 103" d="M263.986,242.755a5.147,5.147,0,0,1,2.652-2.617c.31,0,.4.476.4.714a84.348,84.348,0,0,0-.613,10.538" fill="none" stroke="#ff7f9a" stroke-miterlimit="10" stroke-width="0.4"/>
    <path id="패스_104" data-name="패스 104" d="M266.463,247.457a4.2,4.2,0,0,1,2.309-1.4c.374,0,.629.4.47.635s-1.7,4.758-2.3,6.693" fill="none" stroke="#ff7f9a" stroke-miterlimit="10" stroke-width="0.4"/>
  </g>
</svg>
