<svg xmlns="http://www.w3.org/2000/svg" width="197" height="34.506" viewBox="0 0 197 34.506">
  <g id="그룹_91" data-name="그룹 91" transform="translate(3790.05 1626)">
    <path id="패스_117" data-name="패스 117" d="M29.882,0H9.961L0,17.253,9.961,34.506H29.882l9.962-17.253Z" transform="translate(-3790.05 -1626)" fill="#ffbc0d"/>
    <path id="합치기_2" data-name="합치기 2" d="M7.081,21.774V19H5.269v2.772H3.448V19H0V2.772H3.448V0H5.269V2.772H7.081V0H8.9V2.909c2.3.427,3.564,1.839,3.564,4.05a3.411,3.411,0,0,1-2.731,3.41c2.185.518,3.434,1.929,3.434,3.9,0,2.494-1.509,4.082-4.267,4.569v2.931ZM4.941,15H6.463c1.059,0,1.647-.493,1.647-1.387,0-.918-.588-1.435-1.647-1.435H4.941Zm0-5.41H6.463A1.341,1.341,0,0,0,7.993,8.157c0-.893-.541-1.387-1.529-1.387H4.941Z" transform="translate(-3776.304 -1619.479)" fill="#1d1d1d"/>
    <path id="패스_119" data-name="패스 119" d="M41.376,28.5H58.3l8.463,14.658L58.3,57.817H41.376L32.913,43.158Zm15.875,1.821H42.427L35.015,43.158,42.427,56H57.251l7.412-12.838Z" transform="translate(-3819.967 -1651.906)" fill="#1d1d1d"/>
    <path id="패스_120" data-name="패스 120" d="M514.367,49.48a5.925,5.925,0,0,1,4.557,1.962,5.732,5.732,0,0,1,1.5,4.716l-1,9.65a7.258,7.258,0,0,1-2.3,4.588,7.363,7.363,0,0,1-4.675,2.12l-.284,3.18-4.889.032.285-3.18a5.993,5.993,0,0,1-5.964-6.8l1.044-9.493a7.672,7.672,0,0,1,7.483-6.772Zm.554,16.265,1-9.43A2.171,2.171,0,0,0,515.4,54.7a1.907,1.907,0,0,0-1.528-.681h-4.239a2.427,2.427,0,0,0-1.661.649,2.471,2.471,0,0,0-.838,1.614l-1,9.461a2.07,2.07,0,0,0,.455,1.589,1.9,1.9,0,0,0,1.468.688l.217-2.655,4.889-.064-.221,2.658a2.413,2.413,0,0,0,1.329-.767A2.524,2.524,0,0,0,514.921,65.745Z" transform="translate(-4245.947 -1670.976)" fill="#fff"/>
    <path id="패스_121" data-name="패스 121" d="M730.548,73.811a5.9,5.9,0,0,1-4.612-1.97,6.03,6.03,0,0,1-1.479-4.833l1.724-16.138h4.524L729,67.008a2.014,2.014,0,0,0,.5,1.606,1.961,1.961,0,0,0,1.543.672h2.594a2.455,2.455,0,0,0,1.582-.7,2.4,2.4,0,0,0,.9-1.582l1.693-16.138h4.541l-1.693,16.169a7.746,7.746,0,0,1-2.247,4.873,7.2,7.2,0,0,1-5.268,1.9Z" transform="translate(-4448.521 -1672.239)" fill="#fff"/>
    <path id="패스_122" data-name="패스 122" d="M912.568,73.558H907.68L918.929,50.87h3.148l6.471,22.688h-4.794l-1.3-4.7h-7.7Zm3.955-9.272h5.189l-1.912-6.8Z" transform="translate(-4615.101 -1672.239)" fill="#fff"/>
    <path id="패스_123" data-name="패스 123" d="M1144.56,73.558l2.373-22.688h3.434l9.935,14.224,1.471-14.224h4.525l-2.358,22.688h-3.5L1150.588,59.3,1149.1,73.558Z" transform="translate(-4830.417 -1672.239)" fill="#fff"/>
    <path id="패스_124" data-name="패스 124" d="M1407,73.558l1.912-18.147h-5.6l.443-4.541h15.679l-.443,4.541h-5.617l-1.9,18.147Z" transform="translate(-5065.613 -1672.239)" fill="#fff"/>
    <path id="패스_125" data-name="패스 125" d="M1579.75,73.558l2.341-22.688h8.385a6.094,6.094,0,0,1,3.568,1.061,5.814,5.814,0,0,1,2.152,2.611,6.89,6.89,0,0,1,.388,3.465,7,7,0,0,1-1.5,3.527,7.537,7.537,0,0,1,1.607,4.019,7.237,7.237,0,0,1-.7,3.924,7.4,7.4,0,0,1-2.674,2.919,7.285,7.285,0,0,1-4.043,1.163Zm5-4.541h4.983a2.311,2.311,0,0,0,2.057-1.132,2.471,2.471,0,0,0,.324-2.262,1.775,1.775,0,0,0-1.891-1.132h-5Zm.965-9.066h3.829a2.382,2.382,0,0,0,2.088-1.139,2.442,2.442,0,0,0,.356-2.27,1.838,1.838,0,0,0-1.97-1.132h-3.812Z" transform="translate(-5225.991 -1672.239)" fill="#fff"/>
    <path id="패스_126" data-name="패스 126" d="M1785.69,73.558,1788.1,50.87h14.872l-.455,4.541h-10.33l-.491,4.541h7.357l-.494,4.541H1791.2l-.472,4.525h10.331l-.455,4.541Z" transform="translate(-5413.183 -1672.239)" fill="#fff"/>
    <path id="패스_127" data-name="패스 127" d="M1974.26,73.558l2.405-22.688h14.872l-.455,4.541h-10.335l-.491,4.541h7.362l-.491,4.541h-7.357l-.474,4.525h10.325l-.455,4.541Z" transform="translate(-5584.587 -1672.239)" fill="#fff"/>
  </g>
</svg>
