<svg xmlns="http://www.w3.org/2000/svg" width="197" height="34.506" viewBox="0 0 197 34.506">
  <g id="그룹_92" data-name="그룹 92" transform="translate(3844.55 1214)">
    <path id="패스_106" data-name="패스 106" d="M514.366,49.48a5.926,5.926,0,0,1,4.557,1.962,5.732,5.732,0,0,1,1.5,4.715l-1,9.65a7.256,7.256,0,0,1-2.3,4.588,7.364,7.364,0,0,1-4.676,2.12l-.285,3.18-4.889.032.285-3.18a5.993,5.993,0,0,1-5.964-6.8l1.044-9.493a7.672,7.672,0,0,1,7.483-6.772Zm.554,16.265,1-9.43a2.171,2.171,0,0,0-.514-1.613,1.909,1.909,0,0,0-1.527-.681h-4.245a2.426,2.426,0,0,0-1.661.649,2.469,2.469,0,0,0-.839,1.614l-1,9.461a2.071,2.071,0,0,0,.455,1.589,1.9,1.9,0,0,0,1.468.688l.217-2.655,4.889-.064-.221,2.658a2.414,2.414,0,0,0,1.329-.767A2.518,2.518,0,0,0,514.92,65.745Z" transform="translate(-4300.447 -1258.975)" fill="#1d1d1d"/>
    <path id="패스_107" data-name="패스 107" d="M730.547,73.811a5.9,5.9,0,0,1-4.612-1.97,6.03,6.03,0,0,1-1.479-4.833l1.724-16.138h4.525L729,67.008a2.016,2.016,0,0,0,.5,1.606,1.96,1.96,0,0,0,1.542.672h2.6a2.453,2.453,0,0,0,1.582-.7,2.4,2.4,0,0,0,.9-1.581l1.693-16.138h4.541l-1.693,16.169a7.745,7.745,0,0,1-2.247,4.873,7.2,7.2,0,0,1-5.268,1.9Z" transform="translate(-4503.021 -1260.239)" fill="#1d1d1d"/>
    <path id="패스_108" data-name="패스 108" d="M912.569,73.558H907.68L918.929,50.87h3.148l6.472,22.688h-4.794l-1.3-4.7h-7.705Zm3.955-9.272h5.189l-1.911-6.8Z" transform="translate(-4669.6 -1260.239)" fill="#1d1d1d"/>
    <path id="패스_109" data-name="패스 109" d="M1144.56,73.558l2.373-22.688h3.434l9.935,14.224,1.471-14.224h4.525l-2.358,22.688h-3.5L1150.588,59.3,1149.1,73.558Z" transform="translate(-4884.918 -1260.239)" fill="#1d1d1d"/>
    <path id="패스_110" data-name="패스 110" d="M1407,73.558l1.912-18.147h-5.6l.443-4.541h15.679l-.442,4.541h-5.617l-1.9,18.147Z" transform="translate(-5120.114 -1260.239)" fill="#1d1d1d"/>
    <path id="패스_111" data-name="패스 111" d="M1579.75,73.558l2.342-22.688h8.385a6.091,6.091,0,0,1,3.568,1.061,5.822,5.822,0,0,1,2.153,2.61,6.888,6.888,0,0,1,.388,3.466,6.993,6.993,0,0,1-1.5,3.527,7.535,7.535,0,0,1,1.606,4.019,7.249,7.249,0,0,1-.7,3.924,7.408,7.408,0,0,1-2.674,2.919,7.288,7.288,0,0,1-4.043,1.163Zm5-4.541h4.984a2.309,2.309,0,0,0,2.056-1.132,2.47,2.47,0,0,0,.324-2.262,1.774,1.774,0,0,0-1.891-1.132h-5Zm.965-9.066h3.829a2.38,2.38,0,0,0,2.088-1.139,2.442,2.442,0,0,0,.356-2.27,1.838,1.838,0,0,0-1.97-1.132h-3.812Z" transform="translate(-5280.489 -1260.239)" fill="#1d1d1d"/>
    <path id="패스_112" data-name="패스 112" d="M1785.69,73.558,1788.1,50.87h14.872l-.454,4.541h-10.33l-.491,4.541h7.358l-.495,4.541H1791.2l-.472,4.525h10.331l-.456,4.541Z" transform="translate(-5467.682 -1260.239)" fill="#1d1d1d"/>
    <path id="패스_113" data-name="패스 113" d="M1974.261,73.558l2.4-22.688h14.873l-.456,4.541h-10.335l-.49,4.541h7.363l-.491,4.541h-7.358l-.474,4.525h10.325l-.455,4.541Z" transform="translate(-5639.088 -1260.239)" fill="#1d1d1d"/>
    <path id="패스_114" data-name="패스 114" d="M29.883,0H9.961L0,17.253,9.961,34.506H29.883l9.962-17.254Z" transform="translate(-3844.55 -1214)" fill="#ffbc0d"/>
    <path id="합치기_1" data-name="합치기 1" d="M7.081,21.774V19H5.269v2.772H3.448V19H0V2.772H3.448V0H5.269V2.772H7.081V0H8.9V2.909c2.3.427,3.564,1.839,3.564,4.05a3.411,3.411,0,0,1-2.731,3.41c2.185.518,3.434,1.929,3.434,3.9,0,2.494-1.509,4.082-4.267,4.569v2.931ZM4.941,15H6.471c1.058,0,1.646-.493,1.646-1.387,0-.918-.588-1.435-1.646-1.435H4.941Zm0-5.41H6.471A1.341,1.341,0,0,0,8,8.157c0-.893-.541-1.387-1.528-1.387H4.941Z" transform="translate(-3830.803 -1207.479)" fill="#1d1d1d"/>
    <path id="패스_116" data-name="패스 116" d="M41.376,28.5H58.3l8.463,14.658L58.3,57.817H41.376L32.913,43.158Zm15.875,1.821H42.427L35.015,43.158,42.427,56H57.251l7.412-12.838Z" transform="translate(-3874.468 -1239.906)" fill="#1d1d1d"/>
  </g>
</svg>
